<svg width="40" height="28" viewBox="0 0 40 28" fill="none" xmlns="http://www.w3.org/2000/svg">
<path d="M14.5763 27.2118L11.3428 7.64465L8.72276 16.1597L1.22756 16.168C0.771548 16.168 0.406738 15.8031 0.406738 15.3471C0.406738 14.8911 0.771548 14.5263 1.22756 14.5263L7.52054 14.518L11.8402 0.497681L15.0738 20.1145L19.2691 6.64143L21.4994 13.0256L26.5239 0.84591L31.4074 20.1643L33.248 14.0205L38.6372 14.0123C39.0932 14.0123 39.4581 14.3771 39.4581 14.8331C39.4581 15.2891 39.0932 15.6539 38.6372 15.6539L34.4668 15.6622L31.2747 26.3163L26.1508 6.05275L21.3668 17.6355L19.352 11.8731L14.5763 27.2118Z" fill="#58D6F4"/>
</svg>
